<svg width="199" height="189" viewBox="0 0 199 189" fill="none" xmlns="http://www.w3.org/2000/svg">
<path d="M12.9603 92.6218C14.2033 92.6218 15.416 92.8037 16.5983 93.1675C17.811 93.501 18.8569 94.0164 19.7361 94.7136C20.6456 94.1073 21.6612 93.6071 22.7829 93.213C23.9349 92.8189 25.3143 92.6218 26.9211 92.6218C28.0731 92.6218 29.1948 92.7734 30.2862 93.0765C31.4079 93.3797 32.3932 93.8648 33.2421 94.5317C34.1212 95.1684 34.8185 96.0324 35.3339 97.1238C35.8493 98.1849 36.107 99.4885 36.107 101.035V115.359C35.8038 115.45 35.3188 115.541 34.6518 115.632C34.0151 115.723 33.3482 115.768 32.6509 115.768C31.9839 115.768 31.3776 115.723 30.8319 115.632C30.3165 115.541 29.8769 115.359 29.5131 115.086C29.1493 114.813 28.8613 114.45 28.6491 113.995C28.4672 113.51 28.3763 112.888 28.3763 112.13V101.262C28.3763 100.353 28.1186 99.7007 27.6032 99.3066C27.0878 98.8822 26.3905 98.6699 25.5114 98.6699C25.0869 98.6699 24.6322 98.776 24.1471 98.9883C23.662 99.1702 23.2982 99.3672 23.0557 99.5794C23.086 99.7007 23.1012 99.822 23.1012 99.9432C23.1012 100.034 23.1012 100.125 23.1012 100.216V115.359C22.7677 115.45 22.2675 115.541 21.6005 115.632C20.9639 115.723 20.3121 115.768 19.6451 115.768C18.9781 115.768 18.3718 115.723 17.8261 115.632C17.3107 115.541 16.8711 115.359 16.5073 115.086C16.1435 114.813 15.8555 114.45 15.6433 113.995C15.4614 113.51 15.3705 112.888 15.3705 112.13V101.262C15.3705 100.353 15.0825 99.7007 14.5065 99.3066C13.9608 98.8822 13.2938 98.6699 12.5056 98.6699C11.9599 98.6699 11.49 98.7609 11.0958 98.9428C10.7017 99.0944 10.3683 99.246 10.0954 99.3975V115.359C9.79224 115.45 9.30717 115.541 8.64021 115.632C8.00356 115.723 7.3366 115.768 6.63932 115.768C5.97236 115.768 5.36602 115.723 4.82033 115.632C4.30495 115.541 3.86536 115.359 3.50156 115.086C3.13776 114.813 2.84975 114.45 2.63754 113.995C2.45564 113.51 2.36469 112.888 2.36469 112.13V98.3971C2.36469 97.5785 2.53143 96.9267 2.86491 96.4417C3.22871 95.9566 3.71377 95.5019 4.3201 95.0774C5.35087 94.3498 6.62416 93.7587 8.13999 93.3039C9.68613 92.8492 11.2929 92.6218 12.9603 92.6218ZM57.5576 110.493C58.073 110.493 58.6338 110.448 59.2401 110.357C59.8768 110.236 60.3467 110.084 60.6499 109.902V106.264L57.3757 106.537C56.5268 106.598 55.8295 106.78 55.2838 107.083C54.7381 107.386 54.4653 107.841 54.4653 108.447C54.4653 109.053 54.6927 109.554 55.1474 109.948C55.6325 110.311 56.4359 110.493 57.5576 110.493ZM57.1938 92.6218C58.8309 92.6218 60.3164 92.7885 61.6503 93.122C63.0146 93.4555 64.1666 93.9709 65.1064 94.6682C66.0765 95.3351 66.8193 96.1991 67.3347 97.2602C67.85 98.291 68.1077 99.5188 68.1077 100.944V111.13C68.1077 111.918 67.8804 112.57 67.4256 113.085C67.0012 113.571 66.4858 113.995 65.8795 114.359C63.9089 115.541 61.1349 116.132 57.5576 116.132C55.9508 116.132 54.4956 115.981 53.192 115.678C51.9187 115.374 50.8122 114.92 49.8723 114.313C48.9628 113.707 48.2504 112.934 47.735 111.994C47.25 111.054 47.0074 109.963 47.0074 108.72C47.0074 106.628 47.6289 105.021 48.8719 103.9C50.1149 102.778 52.04 102.081 54.6472 101.808L60.6044 101.171V100.853C60.6044 99.9736 60.2103 99.3521 59.422 98.9883C58.6641 98.5942 57.5576 98.3971 56.1024 98.3971C54.9504 98.3971 53.8286 98.5184 52.7373 98.7609C51.6459 99.0034 50.6606 99.3066 49.7814 99.6704C49.3873 99.3975 49.0538 98.9883 48.7809 98.4426C48.5081 97.8666 48.3717 97.2754 48.3717 96.6691C48.3717 95.8808 48.5536 95.2593 48.9174 94.8046C49.3115 94.3195 49.9027 93.9102 50.6909 93.5768C51.5701 93.2433 52.6008 93.0008 53.7832 92.8492C54.9958 92.6976 56.1327 92.6218 57.1938 92.6218ZM80.2015 93.3039C80.2015 91.7578 80.4592 90.439 80.9746 89.3476C81.5203 88.2259 82.2479 87.3164 83.1574 86.6191C84.0669 85.8915 85.128 85.361 86.3406 85.0275C87.5836 84.694 88.9024 84.5273 90.2969 84.5273C92.5404 84.5273 94.1926 84.8304 95.2537 85.4368C96.3148 86.0128 96.8453 87.0132 96.8453 88.4381C96.8453 89.0444 96.7089 89.5901 96.436 90.0752C96.1935 90.5603 95.9207 90.9241 95.6175 91.1666C95.0415 91.015 94.4351 90.8938 93.7985 90.8028C93.1922 90.6815 92.4797 90.6209 91.6612 90.6209C90.3576 90.6209 89.342 90.8483 88.6144 91.303C87.8868 91.7275 87.523 92.4854 87.523 93.5768V95.032H94.9808C95.1627 95.3654 95.3295 95.7899 95.4811 96.3053C95.663 96.7903 95.7539 97.336 95.7539 97.9423C95.7539 99.0034 95.5114 99.7765 95.0263 100.262C94.5716 100.716 93.9501 100.944 93.1618 100.944H87.9322V115.359C87.6291 115.45 87.144 115.541 86.4771 115.632C85.8404 115.723 85.1734 115.768 84.4762 115.768C83.8092 115.768 83.2029 115.723 82.6572 115.632C82.1418 115.541 81.7022 115.359 81.3384 115.086C80.9746 114.813 80.6866 114.45 80.4744 113.995C80.2925 113.51 80.2015 112.888 80.2015 112.13V93.3039ZM116.364 116.132C114.758 116.132 113.257 115.89 111.862 115.405C110.468 114.95 109.255 114.237 108.224 113.267C107.194 112.297 106.39 111.085 105.814 109.629C105.238 108.174 104.95 106.461 104.95 104.491C104.95 102.581 105.253 100.898 105.86 99.443C106.466 97.9575 107.315 96.7145 108.406 95.7141C109.528 94.6833 110.862 93.9102 112.408 93.3949C113.984 92.8795 115.728 92.6218 117.638 92.6218C119.335 92.6218 120.927 92.8492 122.412 93.3039C123.898 93.7587 125.035 94.2589 125.823 94.8046C126.429 95.229 126.899 95.7141 127.233 96.2598C127.597 96.8055 127.778 97.4876 127.778 98.3061V123.044C127.475 123.135 126.99 123.226 126.323 123.317C125.656 123.439 124.974 123.499 124.277 123.499C123.61 123.499 123.004 123.454 122.458 123.363C121.943 123.272 121.503 123.09 121.139 122.817C120.775 122.544 120.502 122.165 120.321 121.68C120.139 121.225 120.048 120.619 120.048 119.861V115.541C119.532 115.753 118.956 115.905 118.32 115.996C117.683 116.087 117.031 116.132 116.364 116.132ZM120.093 99.1247C119.82 99.0034 119.502 98.8973 119.138 98.8064C118.774 98.7154 118.35 98.6699 117.865 98.6699C116.228 98.6699 114.97 99.155 114.091 100.125C113.211 101.065 112.772 102.49 112.772 104.4C112.772 106.401 113.196 107.841 114.045 108.72C114.894 109.599 116.091 110.039 117.638 110.039C118.668 110.039 119.487 109.826 120.093 109.402V99.1247ZM139.871 93.6222C140.174 93.5313 140.644 93.4403 141.281 93.3494C141.948 93.2584 142.63 93.213 143.327 93.213C143.994 93.213 144.585 93.2584 145.1 93.3494C145.646 93.4403 146.101 93.6222 146.465 93.8951C146.828 94.1679 147.101 94.5469 147.283 95.032C147.495 95.4867 147.602 96.093 147.602 96.8509V106.628C147.602 107.871 147.905 108.765 148.511 109.311C149.117 109.826 149.997 110.084 151.149 110.084C151.846 110.084 152.407 110.023 152.831 109.902C153.286 109.781 153.635 109.66 153.877 109.538V93.6222C154.18 93.5313 154.65 93.4403 155.287 93.3494C155.954 93.2584 156.636 93.213 157.333 93.213C158 93.213 158.591 93.2584 159.107 93.3494C159.652 93.4403 160.107 93.6222 160.471 93.8951C160.835 94.1679 161.108 94.5469 161.289 95.032C161.502 95.4867 161.608 96.093 161.608 96.8509V110.675C161.608 112.191 160.971 113.328 159.698 114.086C158.637 114.753 157.363 115.253 155.878 115.587C154.423 115.95 152.831 116.132 151.103 116.132C149.466 116.132 147.95 115.95 146.556 115.587C145.191 115.223 144.009 114.662 143.009 113.904C142.008 113.146 141.235 112.176 140.689 110.994C140.144 109.781 139.871 108.326 139.871 106.628V93.6222ZM172.66 104.354C172.66 102.353 172.963 100.625 173.569 99.1702C174.175 97.6847 175.009 96.4568 176.07 95.4867C177.162 94.5166 178.42 93.8041 179.845 93.3494C181.3 92.8643 182.861 92.6218 184.529 92.6218C185.135 92.6218 185.726 92.6824 186.302 92.8037C186.878 92.8946 187.348 93.0159 187.712 93.1675V85.8006C188.015 85.7096 188.5 85.6187 189.167 85.5277C189.834 85.4065 190.516 85.3458 191.213 85.3458C191.88 85.3458 192.471 85.3913 192.987 85.4823C193.533 85.5732 193.987 85.7551 194.351 86.028C194.715 86.3008 194.988 86.6798 195.17 87.1648C195.351 87.6196 195.442 88.2259 195.442 88.9838V110.539C195.442 111.964 194.775 113.101 193.442 113.949C192.562 114.525 191.426 115.026 190.031 115.45C188.636 115.905 187.03 116.132 185.211 116.132C183.24 116.132 181.467 115.859 179.89 115.314C178.344 114.768 177.025 113.98 175.934 112.949C174.873 111.918 174.054 110.69 173.478 109.266C172.932 107.81 172.66 106.173 172.66 104.354ZM185.574 98.6699C183.937 98.6699 182.679 99.1398 181.8 100.08C180.921 101.019 180.481 102.444 180.481 104.354C180.481 106.234 180.891 107.659 181.709 108.629C182.528 109.569 183.71 110.039 185.256 110.039C185.802 110.039 186.287 109.963 186.711 109.811C187.166 109.629 187.515 109.432 187.757 109.22V99.2156C187.151 98.8518 186.423 98.6699 185.574 98.6699Z" fill="url(#paint0_linear_166_21)"/>
<path d="M56.7451 157.049L58.1924 154.553C58.6748 154.866 59.3502 155.168 60.2186 155.457C61.0869 155.747 62.1 155.891 63.2579 155.891C64.4639 155.891 65.4167 155.771 66.1162 155.53C66.8399 155.288 67.3585 154.939 67.672 154.48C68.0097 153.998 68.1786 153.443 68.1786 152.816C68.1786 152.333 68.07 151.743 67.8529 151.043C67.66 150.319 67.2258 149.355 66.5504 148.148C65.875 146.918 64.8378 145.314 63.4388 143.336L65.9353 141.708C67.2137 143.469 68.2268 145.061 68.9746 146.484C69.7465 147.907 70.2892 149.162 70.6028 150.247C70.9405 151.308 71.1093 152.225 71.1093 152.997C71.1093 153.962 70.8681 154.902 70.3857 155.819C69.9032 156.711 69.0952 157.447 67.9615 158.026C66.8278 158.605 65.2599 158.894 63.2579 158.894C62.3895 158.894 61.5452 158.822 60.7251 158.677C59.9291 158.533 59.1934 158.328 58.518 158.062C57.8426 157.773 57.2517 157.435 56.7451 157.049ZM75.9057 166.999L75.2544 164.032C76.7017 163.839 78.0283 163.562 79.2344 163.2C80.4646 162.862 81.5138 162.368 82.3822 161.717C83.2747 161.065 83.9621 160.209 84.4446 159.148C84.927 158.086 85.1682 156.76 85.1682 155.168C85.1682 153.527 84.8667 152.165 84.2637 151.079C83.6606 149.994 82.8767 149.451 81.9118 149.451C81.4053 149.451 80.9349 149.644 80.5008 150.03C80.0666 150.416 79.7048 150.934 79.4153 151.586C79.15 152.237 79.0173 152.949 79.0173 153.72C79.0173 154.155 79.1138 154.516 79.3068 154.806C79.4997 155.071 79.7771 155.288 80.1389 155.457C80.5249 155.602 81.0073 155.71 81.5862 155.783C82.1651 155.855 82.8405 155.891 83.6124 155.891H91.2468C91.7533 155.891 92.1151 156.036 92.3322 156.326C92.5734 156.591 92.694 156.917 92.694 157.302C92.694 157.688 92.5252 158.05 92.1875 158.388C91.8498 158.701 91.4156 158.858 90.8849 158.858H82.2375C81.152 158.858 80.1389 158.701 79.1982 158.388C78.2816 158.074 77.5338 157.592 76.9549 156.941C76.4001 156.265 76.1228 155.385 76.1228 154.299C76.1228 153.286 76.2795 152.321 76.5931 151.405C76.9067 150.464 77.3288 149.632 77.8595 148.908C78.4143 148.161 79.0535 147.57 79.7771 147.135C80.5249 146.701 81.3329 146.484 82.2013 146.484C83.3109 146.484 84.2998 146.81 85.1682 147.461C86.0366 148.112 86.724 149.101 87.2306 150.428C87.7371 151.73 87.9904 153.383 87.9904 155.385C87.9904 157.628 87.5321 159.558 86.6155 161.174C85.723 162.814 84.3722 164.117 82.5631 165.082C80.7781 166.046 78.559 166.686 75.9057 166.999ZM91.9588 158.858L92.3206 155.891C92.9236 155.891 93.5387 155.891 94.1659 155.891C94.8172 155.867 95.4564 155.831 96.0835 155.783C96.7107 155.735 97.3137 155.674 97.8926 155.602C98.4715 155.53 98.9901 155.421 99.4484 155.276C100.293 155.011 101.065 154.661 101.764 154.227C102.488 153.793 103.067 153.262 103.501 152.635C103.959 152.008 104.188 151.284 104.188 150.464C104.188 149.909 104.056 149.342 103.79 148.764C103.525 148.161 103.163 147.654 102.705 147.244C102.246 146.834 101.716 146.629 101.113 146.629C100.534 146.629 99.9912 146.822 99.4846 147.208C99.0022 147.594 98.6042 148.1 98.2906 148.727C98.0012 149.33 97.8564 149.958 97.8564 150.609C97.8564 151.381 98.0494 152.08 98.4353 152.707C98.8454 153.31 99.3399 153.829 99.9188 154.263C100.498 154.697 101.077 155.047 101.656 155.312L98.2183 156.326C97.8323 156.036 97.374 155.638 96.8433 155.132C96.3368 154.601 95.8785 153.95 95.4684 153.178C95.0825 152.406 94.8895 151.525 94.8895 150.536C94.8895 149.572 95.0584 148.679 95.3961 147.859C95.7579 147.015 96.2283 146.279 96.8072 145.652C97.4102 145.025 98.0856 144.542 98.8333 144.205C99.6052 143.843 100.401 143.662 101.221 143.662C102.403 143.662 103.44 143.988 104.333 144.639C105.225 145.29 105.913 146.122 106.395 147.135C106.902 148.124 107.155 149.162 107.155 150.247C107.155 151.284 106.962 152.225 106.576 153.069C106.19 153.889 105.66 154.625 104.984 155.276C104.333 155.928 103.561 156.482 102.669 156.941C101.8 157.399 100.872 157.773 99.8826 158.062C99.3278 158.231 98.7248 158.364 98.0735 158.46C97.4464 158.557 96.783 158.629 96.0835 158.677C95.384 158.75 94.6845 158.798 93.985 158.822C93.2855 158.846 92.6101 158.858 91.9588 158.858ZM109.869 158.858C108.663 158.858 107.408 158.786 106.106 158.641C104.827 158.472 103.609 158.267 102.452 158.026C101.318 157.761 100.377 157.471 99.6293 157.158L102.126 155.349C102.85 155.445 103.706 155.542 104.695 155.638C105.684 155.71 106.673 155.771 107.662 155.819C108.651 155.867 109.507 155.891 110.231 155.891C110.737 155.891 111.099 156.036 111.316 156.326C111.557 156.591 111.678 156.917 111.678 157.302C111.678 157.688 111.509 158.05 111.171 158.388C110.834 158.701 110.399 158.858 109.869 158.858ZM103.428 139.935C102.922 139.935 102.488 139.766 102.126 139.429C101.788 139.067 101.619 138.645 101.619 138.162C101.619 137.68 101.788 137.258 102.126 136.896C102.488 136.534 102.922 136.353 103.428 136.353C103.911 136.353 104.321 136.534 104.659 136.896C105.02 137.258 105.201 137.68 105.201 138.162C105.201 138.645 105.02 139.067 104.659 139.429C104.321 139.766 103.911 139.935 103.428 139.935ZM98.4715 139.935C97.965 139.935 97.5308 139.766 97.169 139.429C96.8313 139.067 96.6624 138.645 96.6624 138.162C96.6624 137.68 96.8313 137.258 97.169 136.896C97.5308 136.534 97.965 136.353 98.4715 136.353C98.9539 136.353 99.364 136.534 99.7017 136.896C100.064 137.258 100.244 137.68 100.244 138.162C100.244 138.645 100.064 139.067 99.7017 139.429C99.364 139.766 98.9539 139.935 98.4715 139.935ZM110.958 158.858L111.32 155.891C111.923 155.891 112.538 155.891 113.166 155.891C113.817 155.867 114.456 155.831 115.083 155.783C115.71 155.735 116.313 155.674 116.892 155.602C117.471 155.53 117.99 155.421 118.448 155.276C119.292 155.011 120.064 154.661 120.764 154.227C121.487 153.793 122.066 153.262 122.5 152.635C122.959 152.008 123.188 151.284 123.188 150.464C123.188 149.909 123.055 149.342 122.79 148.764C122.525 148.161 122.163 147.654 121.704 147.244C121.246 146.834 120.716 146.629 120.112 146.629C119.534 146.629 118.991 146.822 118.484 147.208C118.002 147.594 117.604 148.1 117.29 148.727C117.001 149.33 116.856 149.958 116.856 150.609C116.856 151.381 117.049 152.08 117.435 152.707C117.845 153.31 118.34 153.829 118.918 154.263C119.497 154.697 120.076 155.047 120.655 155.312L117.218 156.326C116.832 156.036 116.374 155.638 115.843 155.132C115.336 154.601 114.878 153.95 114.468 153.178C114.082 152.406 113.889 151.525 113.889 150.536C113.889 149.572 114.058 148.679 114.396 147.859C114.758 147.015 115.228 146.279 115.807 145.652C116.41 145.025 117.085 144.542 117.833 144.205C118.605 143.843 119.401 143.662 120.221 143.662C121.403 143.662 122.44 143.988 123.333 144.639C124.225 145.29 124.913 146.122 125.395 147.135C125.902 148.124 126.155 149.162 126.155 150.247C126.155 151.284 125.962 152.225 125.576 153.069C125.19 153.889 124.659 154.625 123.984 155.276C123.333 155.928 122.561 156.482 121.668 156.941C120.8 157.399 119.871 157.773 118.882 158.062C118.328 158.231 117.724 158.364 117.073 158.46C116.446 158.557 115.783 158.629 115.083 158.677C114.384 158.75 113.684 158.798 112.985 158.822C112.285 158.846 111.61 158.858 110.958 158.858ZM128.868 158.858C127.662 158.858 126.408 158.786 125.106 158.641C123.827 158.472 122.609 158.267 121.451 158.026C120.318 157.761 119.377 157.471 118.629 157.158L121.126 155.349C121.849 155.445 122.706 155.542 123.694 155.638C124.683 155.71 125.672 155.771 126.661 155.819C127.65 155.867 128.507 155.891 129.23 155.891C129.737 155.891 130.099 156.036 130.316 156.326C130.557 156.591 130.678 156.917 130.678 157.302C130.678 157.688 130.509 158.05 130.171 158.388C129.833 158.701 129.399 158.858 128.868 158.858ZM119.895 139.935C119.389 139.935 118.955 139.766 118.593 139.429C118.255 139.067 118.086 138.645 118.086 138.162C118.086 137.68 118.255 137.258 118.593 136.896C118.955 136.534 119.389 136.353 119.895 136.353C120.378 136.353 120.788 136.534 121.126 136.896C121.487 137.258 121.668 137.68 121.668 138.162C121.668 138.645 121.487 139.067 121.126 139.429C120.788 139.766 120.378 139.935 119.895 139.935ZM129.958 158.858L130.32 155.891C130.995 155.891 131.562 155.747 132.021 155.457C132.479 155.168 132.925 154.685 133.359 154.01C133.793 153.335 134.264 152.43 134.77 151.296C135.47 149.753 136.157 148.583 136.833 147.787C137.532 146.991 138.22 146.448 138.895 146.158C139.595 145.869 140.282 145.724 140.957 145.724C141.778 145.724 142.537 145.941 143.237 146.376C143.936 146.786 144.552 147.34 145.082 148.04C145.613 148.739 146.023 149.511 146.312 150.356C146.626 151.176 146.783 151.996 146.783 152.816C146.783 154.263 146.529 155.421 146.023 156.289C145.516 157.134 144.865 157.749 144.069 158.135C143.297 158.496 142.489 158.677 141.645 158.677C140.897 158.677 139.932 158.533 138.75 158.243C137.593 157.954 136.121 157.218 134.336 156.036L135.747 153.757C136.929 154.504 137.991 155.023 138.931 155.312C139.896 155.578 140.692 155.71 141.319 155.71C142.019 155.71 142.574 155.614 142.984 155.421C143.394 155.204 143.695 154.902 143.888 154.516C144.081 154.131 144.178 153.696 144.178 153.214C144.178 152.514 144.009 151.815 143.671 151.115C143.333 150.416 142.899 149.837 142.369 149.379C141.862 148.92 141.319 148.691 140.74 148.691C140.306 148.691 139.884 148.812 139.474 149.053C139.064 149.294 138.642 149.74 138.208 150.392C137.773 151.043 137.279 151.984 136.724 153.214C136.145 154.516 135.59 155.554 135.06 156.326C134.553 157.073 134.035 157.628 133.504 157.99C132.973 158.352 132.419 158.581 131.84 158.677C131.285 158.798 130.658 158.858 129.958 158.858Z" fill="#233388"/>
<g filter="url(#filter0_d_166_21)">
<path d="M114.154 34.4436C114.154 39.5361 109.658 55.9588 104.113 55.9588C98.568 55.9588 94.0728 39.5361 94.0728 34.4436C94.0728 29.3511 98.568 25.2228 104.113 25.2228C109.658 25.2228 114.154 29.3511 114.154 34.4436Z" fill="url(#paint1_linear_166_21)"/>
</g>
<path d="M103.908 29.9359C106.737 29.9359 109.031 32.229 109.031 35.058C109.031 37.8872 106.737 40.181 103.908 40.181C101.079 40.1808 98.7858 37.887 98.7858 35.058C98.786 32.2292 101.079 29.9361 103.908 29.9359Z" fill="white" stroke="#3E5AEE" stroke-width="0.409814"/>
<path d="M120.596 20.2506C131.945 29.4966 133.428 46.7577 123.585 58.84C113.742 70.9219 96.5382 72.9593 85.1887 63.7134C73.8393 54.4674 72.3571 37.2075 82.1997 25.1254C92.0424 13.0432 109.246 11.0047 120.596 20.2506Z" stroke="#233388" stroke-width="4.82424"/>
<path d="M49.4812 70.4747C47.1634 71.7888 46.3498 74.733 47.664 77.0507C48.9781 79.3684 51.9223 80.182 54.24 78.8679L49.4812 70.4747ZM78.1136 54.2404L49.4812 70.4747L54.24 78.8679L82.8725 62.6336L78.1136 54.2404Z" fill="#233388"/>
<line x1="68.063" y1="59.8994" x2="72.8872" y2="68.3418" stroke="white" stroke-width="1.20606"/>
<line x1="57.2084" y1="65.9297" x2="62.0326" y2="74.3721" stroke="white" stroke-width="1.20606"/>
<line x1="199" y1="128.341" x2="-5.27186e-08" y2="128.341" stroke="url(#paint2_linear_166_21)" stroke-width="1.20606"/>
<defs>
<filter id="filter0_d_166_21" x="92.4335" y="25.2228" width="23.3594" height="34.0146" filterUnits="userSpaceOnUse" color-interpolation-filters="sRGB">
<feFlood flood-opacity="0" result="BackgroundImageFix"/>
<feColorMatrix in="SourceAlpha" type="matrix" values="0 0 0 0 0 0 0 0 0 0 0 0 0 0 0 0 0 0 127 0" result="hardAlpha"/>
<feOffset dy="1.63926"/>
<feGaussianBlur stdDeviation="0.819629"/>
<feComposite in2="hardAlpha" operator="out"/>
<feColorMatrix type="matrix" values="0 0 0 0 0 0 0 0 0 0 0 0 0 0 0 0 0 0 0.25 0"/>
<feBlend mode="normal" in2="BackgroundImageFix" result="effect1_dropShadow_166_21"/>
<feBlend mode="normal" in="SourceGraphic" in2="effect1_dropShadow_166_21" result="shape"/>
</filter>
<linearGradient id="paint0_linear_166_21" x1="99" y1="61.4047" x2="99" y2="152.405" gradientUnits="userSpaceOnUse">
<stop offset="0.305" stop-color="#233388"/>
<stop offset="1" stop-color="#3E5AEE"/>
</linearGradient>
<linearGradient id="paint1_linear_166_21" x1="104.113" y1="25.2228" x2="104.113" y2="55.9588" gradientUnits="userSpaceOnUse">
<stop offset="0.605" stop-color="#3E5AEE"/>
<stop offset="1" stop-color="#233388"/>
</linearGradient>
<linearGradient id="paint2_linear_166_21" x1="4.37114e-08" y1="127.238" x2="199" y2="127.238" gradientUnits="userSpaceOnUse">
<stop offset="0.42" stop-color="#233388"/>
<stop offset="1" stop-color="#3E5AEE"/>
</linearGradient>
</defs>
</svg>
