<svg width="53" height="50" viewBox="0 0 53 50" fill="none" xmlns="http://www.w3.org/2000/svg">
<path d="M3.42291 24.2003C3.75119 24.2003 4.07146 24.2483 4.38372 24.3444C4.70399 24.4325 4.98023 24.5686 5.21243 24.7528C5.45263 24.5926 5.72086 24.4605 6.01711 24.3564C6.32137 24.2523 6.68568 24.2003 7.11004 24.2003C7.4143 24.2003 7.71055 24.2403 7.99879 24.3204C8.29504 24.4005 8.55526 24.5286 8.77946 24.7047C9.01165 24.8729 9.19581 25.1011 9.33192 25.3893C9.46804 25.6695 9.5361 26.0138 9.5361 26.4222V30.2054C9.45603 30.2294 9.32792 30.2534 9.15177 30.2775C8.98363 30.3015 8.80748 30.3135 8.62332 30.3135C8.44717 30.3135 8.28704 30.3015 8.14292 30.2775C8.0068 30.2534 7.8907 30.2054 7.79462 30.1333C7.69854 30.0613 7.62247 29.9652 7.56643 29.8451C7.51838 29.717 7.49436 29.5528 7.49436 29.3527V26.4822C7.49436 26.242 7.42631 26.0699 7.29019 25.9658C7.15408 25.8537 6.96992 25.7977 6.73772 25.7977C6.62563 25.7977 6.50552 25.8257 6.37742 25.8817C6.24931 25.9298 6.15323 25.9818 6.08917 26.0379C6.09718 26.0699 6.10118 26.1019 6.10118 26.1339C6.10118 26.158 6.10118 26.182 6.10118 26.206V30.2054C6.01311 30.2294 5.88099 30.2534 5.70484 30.2775C5.5367 30.3015 5.36456 30.3135 5.18841 30.3135C5.01226 30.3135 4.85212 30.3015 4.708 30.2775C4.57188 30.2534 4.45578 30.2054 4.3597 30.1333C4.26362 30.0613 4.18756 29.9652 4.13151 29.8451C4.08347 29.717 4.05945 29.5528 4.05945 29.3527V26.4822C4.05945 26.242 3.98338 26.0699 3.83125 25.9658C3.68713 25.8537 3.51098 25.7977 3.3028 25.7977C3.15868 25.7977 3.03458 25.8217 2.93049 25.8697C2.8264 25.9097 2.73833 25.9498 2.66626 25.9898V30.2054C2.5862 30.2294 2.45809 30.2534 2.28194 30.2775C2.1138 30.3015 1.93765 30.3135 1.75349 30.3135C1.57734 30.3135 1.4172 30.3015 1.27308 30.2775C1.13697 30.2534 1.02087 30.2054 0.924785 30.1333C0.828704 30.0613 0.752639 29.9652 0.696592 29.8451C0.648551 29.717 0.62453 29.5528 0.62453 29.3527V25.7256C0.62453 25.5094 0.668568 25.3373 0.756643 25.2092C0.852724 25.081 0.980833 24.9609 1.14097 24.8488C1.4132 24.6567 1.74949 24.5006 2.14983 24.3805C2.55817 24.2603 2.98253 24.2003 3.42291 24.2003ZM15.2013 28.9203C15.3375 28.9203 15.4856 28.9083 15.6457 28.8843C15.8139 28.8522 15.938 28.8122 16.018 28.7642V27.8034L15.1533 27.8754C14.9291 27.8914 14.745 27.9395 14.6008 28.0195C14.4567 28.0996 14.3847 28.2197 14.3847 28.3798C14.3847 28.54 14.4447 28.6721 14.5648 28.7762C14.6929 28.8723 14.9051 28.9203 15.2013 28.9203ZM15.1053 24.2003C15.5376 24.2003 15.93 24.2443 16.2823 24.3324C16.6426 24.4205 16.9468 24.5566 17.195 24.7408C17.4513 24.9169 17.6474 25.1451 17.7835 25.4253C17.9197 25.6976 17.9877 26.0218 17.9877 26.3982V29.0884C17.9877 29.2966 17.9277 29.4688 17.8076 29.6049C17.6955 29.733 17.5593 29.8451 17.3992 29.9412C16.8788 30.2534 16.1461 30.4096 15.2013 30.4096C14.777 30.4096 14.3927 30.3695 14.0484 30.2895C13.7121 30.2094 13.4198 30.0893 13.1716 29.9292C12.9314 29.769 12.7433 29.5649 12.6071 29.3166C12.479 29.0684 12.415 28.7802 12.415 28.4519C12.415 27.8994 12.5791 27.4751 12.9074 27.1788C13.2357 26.8826 13.7441 26.6984 14.4327 26.6264L16.006 26.4582V26.3741C16.006 26.1419 15.9019 25.9778 15.6938 25.8817C15.4936 25.7776 15.2013 25.7256 14.817 25.7256C14.5128 25.7256 14.2165 25.7576 13.9283 25.8217C13.64 25.8857 13.3798 25.9658 13.1476 26.0619C13.0435 25.9898 12.9554 25.8817 12.8834 25.7376C12.8113 25.5855 12.7753 25.4293 12.7753 25.2692C12.7753 25.061 12.8233 24.8969 12.9194 24.7768C13.0235 24.6487 13.1796 24.5406 13.3878 24.4525C13.62 24.3644 13.8922 24.3004 14.2045 24.2603C14.5248 24.2203 14.825 24.2003 15.1053 24.2003ZM21.1818 24.3805C21.1818 23.9721 21.2498 23.6238 21.3859 23.3356C21.5301 23.0393 21.7222 22.7991 21.9624 22.615C22.2026 22.4228 22.4829 22.2827 22.8031 22.1946C23.1314 22.1065 23.4797 22.0625 23.848 22.0625C24.4405 22.0625 24.8769 22.1426 25.1571 22.3027C25.4374 22.4548 25.5775 22.719 25.5775 23.0954C25.5775 23.2555 25.5415 23.3996 25.4694 23.5277C25.4054 23.6558 25.3333 23.7519 25.2532 23.816C25.1011 23.7759 24.941 23.7439 24.7728 23.7199C24.6127 23.6879 24.4245 23.6718 24.2083 23.6718C23.864 23.6718 23.5958 23.7319 23.4037 23.852C23.2115 23.9641 23.1154 24.1643 23.1154 24.4525V24.8368H25.0851C25.1331 24.9249 25.1772 25.037 25.2172 25.1731C25.2652 25.3012 25.2893 25.4454 25.2893 25.6055C25.2893 25.8857 25.2252 26.0899 25.0971 26.218C24.977 26.3381 24.8129 26.3982 24.6047 26.3982H23.2235V30.2054C23.1434 30.2294 23.0153 30.2534 22.8392 30.2775C22.671 30.3015 22.4949 30.3135 22.3107 30.3135C22.1346 30.3135 21.9744 30.3015 21.8303 30.2775C21.6942 30.2534 21.5781 30.2054 21.482 30.1333C21.3859 30.0613 21.3099 29.9652 21.2538 29.8451C21.2058 29.717 21.1818 29.5528 21.1818 29.3527V24.3805ZM30.7326 30.4096C30.3082 30.4096 29.9119 30.3455 29.5436 30.2174C29.1753 30.0973 28.855 29.9091 28.5828 29.6529C28.3105 29.3967 28.0984 29.0764 27.9462 28.6921C27.7941 28.3078 27.718 27.8554 27.718 27.335C27.718 26.8305 27.7981 26.3862 27.9582 26.0018C28.1184 25.6095 28.3426 25.2812 28.6308 25.017C28.9271 24.7448 29.2794 24.5406 29.6877 24.4045C30.1041 24.2684 30.5645 24.2003 31.0689 24.2003C31.5173 24.2003 31.9376 24.2603 32.33 24.3805C32.7223 24.5006 33.0225 24.6327 33.2307 24.7768C33.3909 24.8889 33.515 25.017 33.603 25.1611C33.6991 25.3052 33.7472 25.4854 33.7472 25.7016V32.2351C33.6671 32.2591 33.539 32.2832 33.3628 32.3072C33.1867 32.3392 33.0065 32.3552 32.8224 32.3552C32.6462 32.3552 32.4861 32.3432 32.342 32.3192C32.2058 32.2952 32.0898 32.2471 31.9937 32.1751C31.8976 32.103 31.8255 32.0029 31.7775 31.8748C31.7294 31.7547 31.7054 31.5946 31.7054 31.3944V30.2534C31.5693 30.3095 31.4172 30.3495 31.249 30.3735C31.0809 30.3976 30.9087 30.4096 30.7326 30.4096ZM31.7174 25.9178C31.6454 25.8857 31.5613 25.8577 31.4652 25.8337C31.3691 25.8097 31.257 25.7977 31.1289 25.7977C30.6966 25.7977 30.3643 25.9258 30.1321 26.182C29.8999 26.4302 29.7838 26.8065 29.7838 27.3109C29.7838 27.8394 29.8959 28.2197 30.1201 28.4519C30.3443 28.6841 30.6605 28.8002 31.0689 28.8002C31.3411 28.8002 31.5573 28.7442 31.7174 28.6321V25.9178ZM36.9408 24.4645C37.0209 24.4405 37.145 24.4165 37.3132 24.3925C37.4893 24.3684 37.6695 24.3564 37.8536 24.3564C38.0298 24.3564 38.1859 24.3684 38.322 24.3925C38.4661 24.4165 38.5862 24.4645 38.6823 24.5366C38.7784 24.6086 38.8505 24.7087 38.8985 24.8368C38.9545 24.9569 38.9826 25.1171 38.9826 25.3172V27.8994C38.9826 28.2277 39.0626 28.4639 39.2228 28.608C39.3829 28.7442 39.6151 28.8122 39.9194 28.8122C40.1035 28.8122 40.2516 28.7962 40.3637 28.7642C40.4838 28.7321 40.5759 28.7001 40.64 28.6681V24.4645C40.72 24.4405 40.8442 24.4165 41.0123 24.3925C41.1884 24.3684 41.3686 24.3564 41.5528 24.3564C41.7289 24.3564 41.885 24.3684 42.0212 24.3925C42.1653 24.4165 42.2854 24.4645 42.3815 24.5366C42.4775 24.6086 42.5496 24.7087 42.5976 24.8368C42.6537 24.9569 42.6817 25.1171 42.6817 25.3172V28.9683C42.6817 29.3687 42.5136 29.6689 42.1773 29.8691C41.897 30.0453 41.5608 30.1774 41.1684 30.2654C40.7841 30.3615 40.3637 30.4096 39.9074 30.4096C39.475 30.4096 39.0746 30.3615 38.7063 30.2654C38.346 30.1694 38.0338 30.0212 37.7695 29.8211C37.5053 29.6209 37.3011 29.3647 37.157 29.0524C37.0129 28.7321 36.9408 28.3478 36.9408 27.8994V24.4645ZM45.6006 27.2989C45.6006 26.7705 45.6806 26.3141 45.8408 25.9298C46.0009 25.5374 46.2211 25.2132 46.5013 24.9569C46.7896 24.7007 47.1219 24.5126 47.4982 24.3925C47.8825 24.2644 48.2949 24.2003 48.7352 24.2003C48.8954 24.2003 49.0515 24.2163 49.2036 24.2483C49.3558 24.2724 49.4799 24.3044 49.5759 24.3444V22.3988C49.656 22.3747 49.7841 22.3507 49.9603 22.3267C50.1364 22.2947 50.3166 22.2787 50.5007 22.2787C50.6769 22.2787 50.833 22.2907 50.9691 22.3147C51.1132 22.3387 51.2333 22.3868 51.3294 22.4588C51.4255 22.5309 51.4976 22.631 51.5456 22.7591C51.5937 22.8792 51.6177 23.0393 51.6177 23.2395V28.9323C51.6177 29.3086 51.4415 29.6089 51.0892 29.8331C50.857 29.9852 50.5568 30.1173 50.1885 30.2294C49.8201 30.3495 49.3958 30.4096 48.9154 30.4096C48.3949 30.4096 47.9265 30.3375 47.5102 30.1934C47.1018 30.0493 46.7535 29.8411 46.4653 29.5689C46.1851 29.2966 45.9689 28.9723 45.8167 28.596C45.6726 28.2117 45.6006 27.7793 45.6006 27.2989ZM49.0115 25.7977C48.5791 25.7977 48.2468 25.9218 48.0146 26.17C47.7824 26.4182 47.6663 26.7945 47.6663 27.2989C47.6663 27.7954 47.7744 28.1717 47.9906 28.4279C48.2068 28.6761 48.519 28.8002 48.9274 28.8002C49.0715 28.8002 49.1996 28.7802 49.3117 28.7402C49.4318 28.6921 49.5239 28.6401 49.588 28.584V25.9418C49.4278 25.8457 49.2357 25.7977 49.0115 25.7977Z" fill="url(#paint0_linear_166_88)"/>
<path d="M14.9868 41.1213L15.369 40.4619C15.4964 40.5447 15.6748 40.6244 15.9042 40.7008C16.1335 40.7772 16.4011 40.8155 16.7069 40.8155C17.0254 40.8155 17.277 40.7836 17.4618 40.7199C17.6529 40.6562 17.7899 40.5638 17.8727 40.4428C17.9619 40.3154 18.0065 40.1689 18.0065 40.0032C18.0065 39.8758 17.9778 39.7197 17.9204 39.535C17.8695 39.3439 17.7548 39.089 17.5764 38.7705C17.3981 38.4456 17.1241 38.022 16.7546 37.4996L17.414 37.0696C17.7516 37.5346 18.0192 37.9551 18.2167 38.3309C18.4205 38.7068 18.5639 39.0381 18.6467 39.3248C18.7359 39.6051 18.7805 39.8471 18.7805 40.051C18.7805 40.3058 18.7168 40.5543 18.5894 40.7964C18.4619 41.0321 18.2485 41.2264 17.9491 41.3793C17.6497 41.5322 17.2356 41.6086 16.7069 41.6086C16.4775 41.6086 16.2545 41.5895 16.0379 41.5513C15.8277 41.513 15.6334 41.4589 15.455 41.3888C15.2767 41.3124 15.1206 41.2232 14.9868 41.1213ZM20.0472 43.7491L19.8752 42.9655C20.2575 42.9146 20.6078 42.8413 20.9264 42.7458C21.2513 42.6566 21.5284 42.526 21.7577 42.354C21.9934 42.182 22.175 41.9558 22.3024 41.6755C22.4298 41.3952 22.4935 41.0448 22.4935 40.6244C22.4935 40.1912 22.4139 39.8312 22.2546 39.5445C22.0954 39.2579 21.8883 39.1145 21.6335 39.1145C21.4997 39.1145 21.3755 39.1655 21.2608 39.2674C21.1462 39.3693 21.0506 39.5063 20.9741 39.6783C20.9041 39.8503 20.869 40.0383 20.869 40.2421C20.869 40.3568 20.8945 40.4523 20.9455 40.5288C20.9964 40.5989 21.0697 40.6562 21.1653 40.7008C21.2672 40.739 21.3946 40.7677 21.5475 40.7868C21.7004 40.8059 21.8788 40.8155 22.0826 40.8155H24.0989C24.2327 40.8155 24.3283 40.8537 24.3856 40.9301C24.4493 41.0002 24.4811 41.0862 24.4811 41.1881C24.4811 41.2901 24.4366 41.3856 24.3474 41.4748C24.2582 41.5576 24.1435 41.599 24.0034 41.599H21.7195C21.4328 41.599 21.1653 41.5576 20.9168 41.4748C20.6747 41.392 20.4772 41.2646 20.3243 41.0926C20.1778 40.9142 20.1046 40.6817 20.1046 40.395C20.1046 40.1274 20.146 39.8726 20.2288 39.6305C20.3116 39.3821 20.4231 39.1623 20.5632 38.9712C20.7098 38.7737 20.8786 38.6176 21.0697 38.5029C21.2672 38.3883 21.4806 38.3309 21.7099 38.3309C22.003 38.3309 22.2642 38.4169 22.4935 38.589C22.7229 38.761 22.9044 39.0222 23.0382 39.3725C23.172 39.7165 23.2389 40.1529 23.2389 40.6817C23.2389 41.2741 23.1178 41.7838 22.8758 42.2106C22.6401 42.6438 22.2833 42.9878 21.8055 43.2427C21.3341 43.4975 20.748 43.6663 20.0472 43.7491ZM24.287 41.599L24.3825 40.8155C24.5418 40.8155 24.7042 40.8155 24.8699 40.8155C25.0419 40.8091 25.2107 40.7995 25.3763 40.7868C25.542 40.7741 25.7012 40.7581 25.8541 40.739C26.007 40.7199 26.144 40.6912 26.265 40.653C26.488 40.5829 26.6919 40.4906 26.8766 40.3759C27.0677 40.2612 27.2206 40.1211 27.3353 39.9554C27.4563 39.7898 27.5169 39.5987 27.5169 39.3821C27.5169 39.2356 27.4818 39.0859 27.4117 38.933C27.3417 38.7737 27.2461 38.6399 27.1251 38.5316C27.004 38.4233 26.8639 38.3692 26.7046 38.3692C26.5517 38.3692 26.4084 38.4201 26.2746 38.5221C26.1472 38.624 26.0421 38.7578 25.9592 38.9234C25.8828 39.0827 25.8446 39.2483 25.8446 39.4203C25.8446 39.6242 25.8955 39.8089 25.9975 39.9746C26.1058 40.1338 26.2364 40.2708 26.3893 40.3855C26.5422 40.5001 26.695 40.5925 26.8479 40.6626L25.9401 40.9301C25.8382 40.8537 25.7172 40.7486 25.577 40.6148C25.4432 40.4746 25.3222 40.3026 25.2139 40.0988C25.112 39.8949 25.061 39.6624 25.061 39.4012C25.061 39.1464 25.1056 38.9107 25.1948 38.6941C25.2903 38.4711 25.4146 38.2768 25.5675 38.1112C25.7267 37.9455 25.9051 37.8181 26.1026 37.7289C26.3064 37.6334 26.5167 37.5856 26.7333 37.5856C27.0454 37.5856 27.3194 37.6716 27.5551 37.8436C27.7908 38.0156 27.9723 38.2354 28.0998 38.5029C28.2335 38.7641 28.3004 39.0381 28.3004 39.3248C28.3004 39.5987 28.2495 39.8471 28.1475 40.0701C28.0456 40.2867 27.9055 40.481 27.7271 40.653C27.5551 40.825 27.3512 40.9715 27.1155 41.0926C26.8862 41.2136 26.6409 41.3124 26.3797 41.3888C26.2332 41.4334 26.0739 41.4685 25.9019 41.4939C25.7363 41.5194 25.5611 41.5385 25.3763 41.5513C25.1916 41.5704 25.0068 41.5831 24.8221 41.5895C24.6374 41.5959 24.459 41.599 24.287 41.599ZM29.0171 41.599C28.6986 41.599 28.3673 41.5799 28.0233 41.5417C27.6857 41.4971 27.364 41.443 27.0582 41.3793C26.7588 41.3092 26.5103 41.2327 26.3128 41.1499L26.9722 40.6721C27.1633 40.6976 27.3894 40.7231 27.6506 40.7486C27.9118 40.7677 28.173 40.7836 28.4342 40.7964C28.6954 40.8091 28.9216 40.8155 29.1127 40.8155C29.2465 40.8155 29.342 40.8537 29.3994 40.9301C29.4631 41.0002 29.4949 41.0862 29.4949 41.1881C29.4949 41.2901 29.4503 41.3856 29.3611 41.4748C29.2719 41.5576 29.1573 41.599 29.0171 41.599ZM27.3162 36.6013C27.1824 36.6013 27.0677 36.5567 26.9722 36.4675C26.883 36.372 26.8384 36.2605 26.8384 36.1331C26.8384 36.0057 26.883 35.8942 26.9722 35.7986C27.0677 35.7031 27.1824 35.6553 27.3162 35.6553C27.4436 35.6553 27.5519 35.7031 27.6411 35.7986C27.7366 35.8942 27.7844 36.0057 27.7844 36.1331C27.7844 36.2605 27.7366 36.372 27.6411 36.4675C27.5519 36.5567 27.4436 36.6013 27.3162 36.6013ZM26.007 36.6013C25.8732 36.6013 25.7586 36.5567 25.663 36.4675C25.5738 36.372 25.5292 36.2605 25.5292 36.1331C25.5292 36.0057 25.5738 35.8942 25.663 35.7986C25.7586 35.7031 25.8732 35.6553 26.007 35.6553C26.1344 35.6553 26.2427 35.7031 26.3319 35.7986C26.4275 35.8942 26.4753 36.0057 26.4753 36.1331C26.4753 36.2605 26.4275 36.372 26.3319 36.4675C26.2427 36.5567 26.1344 36.6013 26.007 36.6013ZM29.3049 41.599L29.4005 40.8155C29.5597 40.8155 29.7222 40.8155 29.8878 40.8155C30.0598 40.8091 30.2287 40.7995 30.3943 40.7868C30.5599 40.7741 30.7192 40.7581 30.8721 40.739C31.025 40.7199 31.1619 40.6912 31.283 40.653C31.506 40.5829 31.7098 40.4906 31.8946 40.3759C32.0857 40.2612 32.2386 40.1211 32.3532 39.9554C32.4743 39.7898 32.5348 39.5987 32.5348 39.3821C32.5348 39.2356 32.4998 39.0859 32.4297 38.933C32.3596 38.7737 32.2641 38.6399 32.143 38.5316C32.022 38.4233 31.8818 38.3692 31.7226 38.3692C31.5697 38.3692 31.4263 38.4201 31.2925 38.5221C31.1651 38.624 31.06 38.7578 30.9772 38.9234C30.9007 39.0827 30.8625 39.2483 30.8625 39.4203C30.8625 39.6242 30.9135 39.8089 31.0154 39.9746C31.1237 40.1338 31.2543 40.2708 31.4072 40.3855C31.5601 40.5001 31.713 40.5925 31.8659 40.6626L30.9581 40.9301C30.8562 40.8537 30.7351 40.7486 30.595 40.6148C30.4612 40.4746 30.3401 40.3026 30.2318 40.0988C30.1299 39.8949 30.0789 39.6624 30.0789 39.4012C30.0789 39.1464 30.1235 38.9107 30.2127 38.6941C30.3083 38.4711 30.4325 38.2768 30.5854 38.1112C30.7447 37.9455 30.923 37.8181 31.1205 37.7289C31.3244 37.6334 31.5346 37.5856 31.7512 37.5856C32.0634 37.5856 32.3373 37.6716 32.573 37.8436C32.8087 38.0156 32.9903 38.2354 33.1177 38.5029C33.2515 38.7641 33.3184 39.0381 33.3184 39.3248C33.3184 39.5987 33.2674 39.8471 33.1655 40.0701C33.0636 40.2867 32.9234 40.481 32.745 40.653C32.573 40.825 32.3692 40.9715 32.1335 41.0926C31.9041 41.2136 31.6588 41.3124 31.3977 41.3888C31.2511 41.4334 31.0919 41.4685 30.9199 41.4939C30.7542 41.5194 30.579 41.5385 30.3943 41.5513C30.2095 41.5704 30.0248 41.5831 29.84 41.5895C29.6553 41.5959 29.4769 41.599 29.3049 41.599ZM34.0351 41.599C33.7165 41.599 33.3853 41.5799 33.0413 41.5417C32.7036 41.4971 32.3819 41.443 32.0761 41.3793C31.7767 41.3092 31.5282 41.2327 31.3308 41.1499L31.9901 40.6721C32.1812 40.6976 32.4074 40.7231 32.6686 40.7486C32.9298 40.7677 33.191 40.7836 33.4522 40.7964C33.7134 40.8091 33.9395 40.8155 34.1306 40.8155C34.2644 40.8155 34.36 40.8537 34.4173 40.9301C34.481 41.0002 34.5129 41.0862 34.5129 41.1881C34.5129 41.2901 34.4683 41.3856 34.3791 41.4748C34.2899 41.5576 34.1752 41.599 34.0351 41.599ZM31.6652 36.6013C31.5314 36.6013 31.4168 36.5567 31.3212 36.4675C31.232 36.372 31.1874 36.2605 31.1874 36.1331C31.1874 36.0057 31.232 35.8942 31.3212 35.7986C31.4168 35.7031 31.5314 35.6553 31.6652 35.6553C31.7926 35.6553 31.9009 35.7031 31.9901 35.7986C32.0857 35.8942 32.1335 36.0057 32.1335 36.1331C32.1335 36.2605 32.0857 36.372 31.9901 36.4675C31.9009 36.5567 31.7926 36.6013 31.6652 36.6013ZM34.3229 41.599L34.4184 40.8155C34.5968 40.8155 34.7465 40.7772 34.8676 40.7008C34.9886 40.6244 35.1064 40.4969 35.2211 40.3186C35.3358 40.1402 35.46 39.9013 35.5938 39.6019C35.7785 39.1942 35.9601 38.8852 36.1385 38.675C36.3232 38.4647 36.5048 38.3214 36.6832 38.2449C36.8679 38.1685 37.0495 38.1303 37.2278 38.1303C37.4444 38.1303 37.6451 38.1876 37.8299 38.3023C38.0146 38.4106 38.1771 38.5571 38.3172 38.7418C38.4574 38.9266 38.5657 39.1305 38.6421 39.3534C38.7249 39.57 38.7663 39.7866 38.7663 40.0032C38.7663 40.3855 38.6995 40.6912 38.5657 40.9206C38.4319 41.1436 38.2599 41.306 38.0497 41.4079C37.8458 41.5035 37.6324 41.5513 37.4094 41.5513C37.2119 41.5513 36.9571 41.513 36.6449 41.4366C36.3392 41.3602 35.9505 41.1658 35.4791 40.8537L35.8518 40.2517C36.164 40.4492 36.4443 40.5861 36.6927 40.6626C36.9475 40.7327 37.1578 40.7677 37.3234 40.7677C37.5082 40.7677 37.6547 40.7422 37.763 40.6912C37.8713 40.6339 37.9509 40.5543 38.0019 40.4523C38.0528 40.3504 38.0783 40.2357 38.0783 40.1083C38.0783 39.9236 38.0337 39.7388 37.9445 39.5541C37.8554 39.3693 37.7407 39.2165 37.6005 39.0954C37.4667 38.9744 37.3234 38.9139 37.1705 38.9139C37.0558 38.9139 36.9444 38.9457 36.8361 39.0094C36.7278 39.0731 36.6163 39.191 36.5016 39.363C36.3869 39.535 36.2563 39.7834 36.1098 40.1083C35.9569 40.4523 35.8104 40.7263 35.6702 40.9301C35.5365 41.1276 35.3995 41.2741 35.2593 41.3697C35.1192 41.4653 34.9727 41.5258 34.8198 41.5513C34.6732 41.5831 34.5076 41.599 34.3229 41.599Z" fill="#233388"/>
<g filter="url(#filter0_d_166_88)">
<path d="M30.1487 9.09678C30.1487 10.4417 28.9615 14.7791 27.497 14.7791C26.0324 14.7791 24.8452 10.4417 24.8452 9.09678C24.8452 7.75181 26.0324 6.6615 27.497 6.6615C28.9615 6.6615 30.1487 7.75181 30.1487 9.09678Z" fill="url(#paint1_linear_166_88)"/>
</g>
<path d="M27.4431 7.90576C28.1902 7.90586 28.7957 8.51213 28.7957 9.25928C28.7956 10.0063 28.1902 10.6117 27.4431 10.6118C26.696 10.6118 26.0897 10.0064 26.0896 9.25928C26.0896 8.51207 26.6959 7.90576 27.4431 7.90576Z" fill="white" stroke="#3E5AEE" stroke-width="0.108235"/>
<path d="M31.8501 5.34782C34.8477 7.78976 35.2395 12.3492 32.6399 15.5402C30.0403 18.7312 25.4964 19.2685 22.4989 16.8266C19.5017 14.3846 19.1099 9.82644 21.7093 6.63557C24.3087 3.44469 28.8526 2.9062 31.8501 5.34782Z" stroke="#233388" stroke-width="1.27412"/>
<path d="M13.0683 18.6128C12.4562 18.9599 12.2413 19.7375 12.5884 20.3496C12.9355 20.9617 13.7131 21.1766 14.3252 20.8295L13.0683 18.6128ZM20.6304 14.3252L13.0683 18.6128L14.3252 20.8295L21.8872 16.5419L20.6304 14.3252Z" fill="#233388"/>
<line x1="17.9759" y1="15.8198" x2="19.25" y2="18.0495" stroke="white" stroke-width="0.318529"/>
<line x1="15.1091" y1="17.4126" x2="16.3832" y2="19.6423" stroke="white" stroke-width="0.318529"/>
<line x1="52.5573" y1="33.8957" x2="-1.39233e-08" y2="33.8957" stroke="url(#paint2_linear_166_88)" stroke-width="0.318529"/>
<defs>
<filter id="filter0_d_166_88" x="24.4123" y="6.6615" width="6.16934" height="8.98343" filterUnits="userSpaceOnUse" color-interpolation-filters="sRGB">
<feFlood flood-opacity="0" result="BackgroundImageFix"/>
<feColorMatrix in="SourceAlpha" type="matrix" values="0 0 0 0 0 0 0 0 0 0 0 0 0 0 0 0 0 0 127 0" result="hardAlpha"/>
<feOffset dy="0.432939"/>
<feGaussianBlur stdDeviation="0.216469"/>
<feComposite in2="hardAlpha" operator="out"/>
<feColorMatrix type="matrix" values="0 0 0 0 0 0 0 0 0 0 0 0 0 0 0 0 0 0 0.25 0"/>
<feBlend mode="normal" in2="BackgroundImageFix" result="effect1_dropShadow_166_88"/>
<feBlend mode="normal" in="SourceGraphic" in2="effect1_dropShadow_166_88" result="shape"/>
</filter>
<linearGradient id="paint0_linear_166_88" x1="26.5" y1="16.2174" x2="26.5" y2="40.2174" gradientUnits="userSpaceOnUse">
<stop offset="0.305" stop-color="#233388"/>
<stop offset="1" stop-color="#3E5AEE"/>
</linearGradient>
<linearGradient id="paint1_linear_166_88" x1="27.497" y1="6.6615" x2="27.497" y2="14.7791" gradientUnits="userSpaceOnUse">
<stop offset="0.605" stop-color="#3E5AEE"/>
<stop offset="1" stop-color="#233388"/>
</linearGradient>
<linearGradient id="paint2_linear_166_88" x1="4.37114e-08" y1="33.2364" x2="52.5573" y2="33.2365" gradientUnits="userSpaceOnUse">
<stop offset="0.42" stop-color="#233388"/>
<stop offset="1" stop-color="#3E5AEE"/>
</linearGradient>
</defs>
</svg>
